<svg width="734" height="380" fill="none" xmlns="http://www.w3.org/2000/svg"><g opacity=".2"><path opacity=".2" d="M522.215 279.435l-16.612 6.727m75.608 96.545V251.835c0-2.881.07-6.15.214-9.785l-.214 140.657zM636.247 25.03l-21.695 17.123c-.989 4.065-2.648 9.419-4.223 14.677l25.918-31.8zm-29.264 44.03l32.196-22.627-32.196 22.627zm0 0c.758-3.464 2.023-7.814 3.346-12.23l-3.346 12.23zm0 0a1111.08 1111.08 0 00-3.112 14.678l3.112-14.678zm-6.264 30.578l37.287-25.685-37.287 25.685zm0 0a1217.126 1217.126 0 013.152-15.9l-3.152 15.9zm0 0a1321.87 1321.87 0 00-1.945 10.396l1.945-10.396zm-3.802 20.793l34.639-19.57-34.639 19.57zm0 0c.601-3.448 1.221-6.916 1.857-10.397l-1.857 10.397zm0 0a1528.49 1528.49 0 00-2.068 12.23l2.068-12.23zm-4.063 24.462l25.802-15.901-25.802 15.901zm0 0c.516-3.229 1.248-7.722 1.995-12.232l-1.995 12.232zm0 0c-6.716 42.099-10.589 75.869-11.429 97.156l11.429-97.156zM538.68 255.585c12.338-9.651 32.255-11.357 42.531 21.935l-42.531-21.935zm0 0c-1.857 1.452-8.252 6.786-13.518 17.123l13.518-17.123zm0 0c7.888 6.033-1.675 10.59-4.577 26.908l4.577-26.908zm0 0c-15.469-1.793-27.247 12.966-33.077 30.577l33.077-30.577zM610.329 56.83l-20.993-18.346 20.993 18.346zm-6.458 26.909l-25.09-18.958 25.09 18.958zm-5.097 26.296l-25.271-15.9 25.271 15.9zm-3.925 22.627l-21.346-12.23 21.346 12.23zM581.425 242.05c2.256-29.355 44.888-78.199 63.032-100.826L581.425 242.05zm-56.263 30.658l8.941 9.785-8.941-9.785zm0 0a63.876 63.876 0 00-2.947 6.727l2.947-6.727zm8.941 9.785a50.63 50.63 0 00-.701 6.115c-.238 4.346-.476 9.172-.832 14.066l1.533-20.181zm-14.59 6.115l13.057 14.066-13.057-14.066zm0 0a78.495 78.495 0 00-1.408 8.562l1.408-8.562zm0 0a70.017 70.017 0 012.702-9.173l-2.702 9.173zm13.057 14.066c-.409 5.619-.973 11.329-1.87 16.511l1.87-16.511zm-14.963 2.446l13.093 14.065-13.093-14.065zm0 0c-.053 2.912.027 5.968.263 9.173l-.263-9.173zm0 0a88.19 88.19 0 01.498-7.95l-.498 7.95zm13.093 14.065c-.907 5.237-2.154 9.936-3.926 13.454l3.926-13.454zm-3.926 13.454c-2.47 4.907-5.959 7.521-10.964 6.116-5.071-1.423-8.692-5.197-11.017-10.396l21.981 4.28zm0 0l-8.032-10.396a113.983 113.983 0 01-.872-7.95l8.904 18.346zm-8.904-18.346l-13.077 14.066 13.077-14.066zm-13.077 14.066c-2.457-5.496-3.464-12.587-3.202-20.182l3.202 20.182zm13.312-31.189l-16.514 11.007 16.514-11.007zm-16.514 11.007c.249-7.194 1.637-14.841 4.012-22.015l-4.012 22.015z" stroke="#fff" stroke-width="2"/><path opacity=".2" d="M669.089 226.841c-11.141 0-86.703-18.331-87.876 61.782m87.876-61.782c-14.073 9.943-18.765 11.009-23.456 3.669-2.932-4.586 1.759-18.346 23.456-3.669zm0 0c12.315 8.331 37.921 27.52 44.567 36.693 4.692 6.728 32.253-12.842 9.383-44.642-18.296-25.441-39.876-1.993-53.95 7.949zM635.154 87.5c-4.85 19.685-12.583 36.559-21.123 47.931-4.271 5.686-8.713 9.957-13.059 12.531-4.34 2.57-8.526 3.416-12.362 2.388-3.837-1.028-7.112-3.875-9.727-8.309-2.618-4.439-4.535-10.414-5.648-17.544-2.224-14.256-1.197-32.928 3.654-52.613 4.85-19.684 12.583-36.559 21.123-47.93 4.271-5.687 8.713-9.958 13.059-12.531 4.34-2.57 8.526-3.417 12.362-2.389 3.837 1.029 7.112 3.875 9.727 8.31 2.618 4.439 4.535 10.414 5.648 17.544 2.224 14.256 1.197 32.927-3.654 52.612zm-74.914 33.544c7.901 10.574 12.845 21.875 14.486 31.564 1.65 9.742-.067 17.558-5.055 21.613-4.989 4.054-12.677 3.88-21.331-.169-8.608-4.029-17.909-11.791-25.809-22.364-7.951-10.64-17.324-25.367-23.349-38.502-3.017-6.577-5.163-12.689-5.9-17.658-.745-5.025-.003-8.517 2.258-10.355 2.331-1.894 6.413-2.182 11.824-.896 5.338 1.27 11.677 4.003 18.219 7.7 13.092 7.398 26.784 18.53 34.657 29.067z" stroke="#fff" stroke-width="2"/><path opacity=".2" d="M558.369 159.571h-29.431m-5.864-44.643c3.492 2.108 7.492 5.292 11.728 9.63l-11.728-9.63zm58.139 191.736c0-61.758-5.527-106.102-18.465-137.309l18.465 137.309zm-46.411-182.106l-5.864-29.811 5.864 29.811zm0 0c2.478 2.538 5.037 5.47 7.623 8.812l-7.623-8.812zm17.038 22.782l-5.31-40.362 5.31 40.362zm0 0c-3.114-5.277-6.284-9.924-9.415-13.97l9.415 13.97zm0 0a166.383 166.383 0 016.529 12.231l-6.529-12.231zm10.908 22.015l2.547-40.362-2.547 40.362zm0 0a189.54 189.54 0 00-4.379-9.784l4.379 9.784zm-20.323-35.985h-31.079 31.079zm87.694 68.387c-10.71 7.646-23.194 8.283-30.684 1.189-4.629-4.383-6.621-10.991-5.993-18.235.628-7.244 3.879-15.057 9.649-21.684 5.855-6.724 14.417-14.638 22.697-19.703 4.145-2.536 8.156-4.317 11.683-4.918 3.512-.597 6.428-.008 8.584 2.034 2.2 2.083 3.564 5.628 4.109 10.179.541 4.525.253 9.897-.711 15.441-1.888 10.851-6.319 22.121-11.862 28.775l-13.385-3.858-2.965-.855 1.915 2.511 6.963 9.124zm-14.393 92.967c-11.731-7.339-7.62-14.677 2.78-12.843m-37.293 66.418c0-33.024 12.23-58.467 34.513-53.575l-34.513 53.575zm34.513-53.575c17.827 3.913 55.514 16.308 72.128 22.016 10.556-9.785-5.864-25.074-21.11-34.859-22.412-14.382-41.349-13.264-48.238 0l-2.78 12.843zm0 0c0-5.072.978-9.374 2.78-12.843l-2.78 12.843z" stroke="#fff" stroke-width="2"/><path opacity=".2" d="M517.91 184.644c17.75-9.784 62.833 2.037 63.303 90.1m-63.303-90.1c4.048-2.698 8.099-6.377 14.546-7.338 8.8-1.312 18.264 3.734 12.318 7.706-10.555 7.051-23.579-.571-26.864-.368zm0 0c-11.014 7.343-17.784 12.277-19.462 41.586-2.345 40.974-23.456 6.116-25.802-11.008-2.345-17.124 3.157-33.024 45.264-30.578zM456.564 1H289.713v244.944h166.851V1z" stroke="#fff" stroke-width="2"/><path opacity=".2" d="M449.918 7.939H296.362v231.066h153.556V7.939z" stroke="#fff" stroke-width="2"/><path opacity=".2" d="M433.963 35.695H312.316V211.25h121.647V35.695z" stroke="#fff" stroke-width="2"/><path opacity=".2" d="M357.85 36.04c6.456 17.209 12.952 31.893 19.281 44.41m56.502 70.084s-12.069-4.779-29.223-26.368l29.223 26.368z" stroke="#fff" stroke-width="2"/><path opacity=".2" d="M377.154 77.582c.439-28.636 24.332-26.797 36.223-22.298.549 0 1.976.821 3.294 4.107 1.646 4.108 2.744 37.556 2.195 41.076-.549 3.521-5.489 11.15-14.27 22.886-8.781 11.735-7.135 25.232-17.014 35.795-9.879 10.562-12.624 4.107-14.27 2.933-1.647-1.173 0-9.388-1.647-18.19-1.646-8.803 1.098-18.191 1.647-22.886.548-4.694 3.293-7.628 3.842-43.423zm-34.461 133.322c-4.855-1.567-15.24-5.176-17.929-7.058-1.681-1.176-3.362-3.529-4.483-4.706-.896-.94-6.35-9.411-8.965-13.529m0-22.939l11.767-3.529c3.362-1.177 5.603-1.177 7.844-.589 2.241.589 17.37 2.941 21.292 4.118 3.922 1.175 8.965 4.117 12.326 7.646 3.362 3.529 22.973 24.705 24.094 26.47 1.12 1.765 1.12 2.352 1.12 3.529 0 1.176-.56 7.647-2.241 10.587l-76.202-48.232zm38.329-95.792c-1.064.555-4.875 3.007-6.648 4.163-1.33.862-1.33 2.776-.665 9.022.665 6.245 1.994 9.02 3.324 9.02 1.33 0 2.659.694 4.653.694 1.995 0 2.659 0 3.989-.694s3.989-3.47 5.318-4.857c1.064-1.11 1.33-2.776 1.33-3.47v-5.55c0-1.389-.665-2.776-1.995-4.165-1.329-1.388-5.318-4.163-5.983-4.163-.664 0-1.994-.694-3.323 0z" stroke="#fff" stroke-width="2"/><path opacity=".2" d="M-8.039 379.524l-24.17 97.58c-.527 2.359.738 4.753 2.944 5.572 2.206.82 4.656-.194 5.704-2.36L9.91 391.321" stroke="#fff" stroke-width="2" stroke-linejoin="round"/><path opacity=".2" d="M9.488 266.347L-8.737 156.551c-1.723-10.382-11.189-17.338-21.133-15.532-9.904 1.8-16.55 11.615-14.87 21.961l23.406 140.908" stroke="#fff" stroke-width="2"/><path opacity=".2" d="M182.75 326.094l-27.9-160.129c-2.747-15.764-15.953-27.227-31.368-27.227H-21.491c-5.526 0-11.913 2.195-15.798 5.552m273.222 131.842l24.848 2.846c16.123 1.858 28.333 16.213 28.333 33.309v46.914c0 18.506-14.232 33.508-31.788 33.508h-23.25" stroke="#fff" stroke-width="2"/><path opacity=".2" d="M172.115 269.193l67.852 7.345c14.347 1.627 25.216 14.255 25.216 29.299v57.297c0 11.894-6.76 22.143-16.493 26.799" stroke="#fff" stroke-width="2"/><path opacity=".2" d="M166.581 377.443h76.933c3.89 0 7.044 3.417 7.044 7.632 0 4.216-3.154 7.634-7.044 7.634H98.99m62.605-66.615h70.996c13.593 0 24.613 11.494 24.613 25.674s-11.02 25.675-24.613 25.675h-76.432" stroke="#fff" stroke-width="2"/><path opacity=".2" d="M-22.032 302.934c-2.753-21.058 14.139-39.147 34.148-36.625l94.649 11.93c15.467 1.95 27.123 15.772 27.123 32.199v50.187c0 17.918-13.789 32.427-30.78 32.427H16.583c-15.369 0-28.392-11.946-30.491-28.001l-8.124-62.117z" stroke="#fff" stroke-width="2"/><path opacity=".2" d="M62.728 273.357l70.547 8.753c16.088 1.995 28.203 16.213 28.203 33.097v44.169c0 18.409-14.32 33.333-31.984 33.333H49.797" stroke="#fff" stroke-width="2"/><path opacity=".2" d="M99 160s12.901 24.462 8.284 47.614c-.409 2.056 0 4.035.485 4.892 1.431 2.533 9.996 21.492 6.621 43.707-.391 2.577.059 3.994.592 4.893 1.408 2.374 5.139 9.215 7.475 19.369M45.08 160.182s12.9 24.462 8.283 47.614c-.41 2.056 0 4.035.485 4.892 1.43 2.534 9.996 21.492 6.62 43.708-.39 2.576.06 3.993.593 4.892 1.04 1.753 3.346 6.296 5.422 12.643" stroke="#fff" stroke-width="2" stroke-linecap="round"/><path opacity=".2" d="M52.116 215.222c1.943 0 3.519-1.643 3.519-3.669 0-2.027-1.576-3.67-3.519-3.67s-3.518 1.643-3.518 3.67c0 2.026 1.575 3.669 3.518 3.669zm53.95 0c1.943 0 3.518-1.643 3.518-3.669 0-2.027-1.575-3.67-3.518-3.67-1.943 0-3.518 1.643-3.518 3.67 0 2.026 1.575 3.669 3.518 3.669zm-46.913 48.924c1.943 0 3.519-1.643 3.519-3.669 0-2.027-1.576-3.669-3.519-3.669s-3.518 1.642-3.518 3.669c0 2.026 1.575 3.669 3.518 3.669zm53.95 0c1.943 0 3.518-1.643 3.518-3.669 0-2.027-1.575-3.669-3.518-3.669-1.943 0-3.518 1.642-3.518 3.669 0 2.026 1.575 3.669 3.518 3.669z" fill="#fff"/></g></svg>