<svg width="734" height="380" viewBox="0 0 734 380" fill="none" xmlns="http://www.w3.org/2000/svg">
<g opacity="0.2">
<path opacity="0.2" d="M522.215 279.435L505.603 286.162M581.211 382.707C581.211 361.122 581.211 322.709 581.211 291.585C581.211 275.093 581.211 260.646 581.211 251.835C581.211 248.954 581.281 245.685 581.425 242.05L581.211 382.707ZM636.247 25.0298L614.552 42.1532C613.563 46.218 611.904 51.5715 610.329 56.8304L636.247 25.0298ZM606.983 69.0615L639.179 46.4341L606.983 69.0615ZM606.983 69.0615C607.741 65.5974 609.006 61.2472 610.329 56.8304L606.983 69.0615ZM606.983 69.0615C605.912 73.9467 604.875 78.8439 603.871 83.7387L606.983 69.0615ZM600.719 99.639L638.006 73.9538L600.719 99.639ZM600.719 99.639C601.731 94.3536 602.781 89.0475 603.871 83.7387L600.719 99.639ZM600.719 99.639C600.054 103.115 599.406 106.582 598.774 110.035L600.719 99.639ZM596.917 120.432L631.556 100.862L596.917 120.432ZM596.917 120.432C597.518 116.984 598.138 113.516 598.774 110.035L596.917 120.432ZM596.917 120.432C596.343 123.719 595.588 128.199 594.849 132.662L596.917 120.432ZM592.854 144.894L618.656 128.993L592.854 144.894ZM592.854 144.894C593.37 141.665 594.102 137.172 594.849 132.662L592.854 144.894ZM592.854 144.894C586.138 186.993 582.265 220.763 581.425 242.05L592.854 144.894ZM538.68 255.585C551.018 245.934 570.935 244.228 581.211 277.52L538.68 255.585ZM538.68 255.585C536.823 257.037 530.428 262.371 525.162 272.708L538.68 255.585ZM538.68 255.585C546.568 261.618 537.005 266.175 534.103 282.493L538.68 255.585ZM538.68 255.585C523.211 253.792 511.433 268.551 505.603 286.162L538.68 255.585ZM610.329 56.8304L589.336 38.4839L610.329 56.8304ZM603.871 83.7387L578.781 64.7806L603.871 83.7387ZM598.774 110.035L573.503 94.135L598.774 110.035ZM594.849 132.662L573.503 120.432L594.849 132.662ZM581.425 242.05C583.681 212.695 626.313 163.851 644.457 141.224L581.425 242.05ZM525.162 272.708L534.103 282.493L525.162 272.708ZM525.162 272.708C524.121 274.751 523.124 276.992 522.215 279.435L525.162 272.708ZM534.103 282.493C533.769 284.369 533.523 286.401 533.402 288.608C533.164 292.954 532.926 297.78 532.57 302.674L534.103 282.493ZM519.513 288.608L532.57 302.674L519.513 288.608ZM519.513 288.608C518.917 291.281 518.437 294.132 518.105 297.17L519.513 288.608ZM519.513 288.608C520.256 285.275 521.179 282.222 522.215 279.435L519.513 288.608ZM532.57 302.674C532.161 308.293 531.597 314.003 530.7 319.185L532.57 302.674ZM517.607 305.12L530.7 319.185L517.607 305.12ZM517.607 305.12C517.554 308.032 517.634 311.088 517.87 314.293L517.607 305.12ZM517.607 305.12C517.658 302.339 517.83 299.691 518.105 297.17L517.607 305.12ZM530.7 319.185C529.793 324.422 528.546 329.121 526.774 332.639L530.7 319.185ZM526.774 332.639C524.304 337.546 520.815 340.16 515.81 338.755C510.739 337.332 507.118 333.558 504.793 328.359L526.774 332.639ZM526.774 332.639L518.742 322.243C518.345 319.498 518.058 316.848 517.87 314.293L526.774 332.639ZM517.87 314.293L504.793 328.359L517.87 314.293ZM504.793 328.359C502.336 322.863 501.329 315.772 501.591 308.177L504.793 328.359ZM518.105 297.17L501.591 308.177L518.105 297.17ZM501.591 308.177C501.84 300.983 503.228 293.336 505.603 286.162L501.591 308.177Z" stroke="white" stroke-width="2"/>
<path opacity="0.2" d="M669.089 226.841C657.948 226.841 582.386 208.51 581.213 288.623M669.089 226.841C655.016 236.784 650.324 237.85 645.633 230.51C642.701 225.924 647.392 212.164 669.089 226.841ZM669.089 226.841C681.404 235.172 707.01 254.361 713.656 263.534C718.348 270.262 745.909 250.692 723.039 218.892C704.743 193.451 683.163 216.899 669.089 226.841Z" stroke="white" stroke-width="2"/>
<path opacity="0.2" d="M635.154 87.5002C630.304 107.185 622.571 124.059 614.031 135.431C609.76 141.117 605.318 145.388 600.972 147.962C596.632 150.532 592.446 151.378 588.61 150.35C584.773 149.322 581.498 146.475 578.883 142.041C576.265 137.602 574.348 131.627 573.235 124.497C571.011 110.241 572.038 91.5693 576.889 71.8844C581.739 52.1995 589.472 35.3253 598.012 23.9539C602.283 18.2667 606.725 13.9964 611.071 11.423C615.411 8.85326 619.597 8.00623 623.433 9.03441C627.27 10.0626 630.545 12.9094 633.16 17.3431C635.778 21.7828 637.695 27.7577 638.808 34.8875C641.032 49.1437 640.005 67.8153 635.154 87.5002Z" stroke="white" stroke-width="2"/>
<path opacity="0.2" d="M560.24 121.044C568.141 131.618 573.085 142.919 574.726 152.608C576.376 162.35 574.659 170.166 569.671 174.221C564.682 178.275 556.994 178.101 548.34 174.052C539.732 170.023 530.431 162.261 522.531 151.688C514.58 141.048 505.207 126.321 499.182 113.186C496.165 106.609 494.019 100.497 493.282 95.5283C492.537 90.5029 493.279 87.0109 495.54 85.1733C497.871 83.2792 501.953 82.9908 507.364 84.2772C512.702 85.5463 519.041 88.2801 525.583 91.9769C538.675 99.3747 552.367 110.507 560.24 121.044Z" stroke="white" stroke-width="2"/>
<path opacity="0.2" d="M558.369 159.571H528.938M523.074 114.928C526.566 117.036 530.566 120.22 534.802 124.558L523.074 114.928ZM581.213 306.664C581.213 244.906 575.686 200.562 562.748 169.355L581.213 306.664ZM534.802 124.558L528.938 94.7466L534.802 124.558ZM534.802 124.558C537.28 127.096 539.839 130.028 542.425 133.37L534.802 124.558ZM551.84 147.34L546.53 106.978L551.84 147.34ZM551.84 147.34C548.726 142.063 545.556 137.416 542.425 133.37L551.84 147.34ZM551.84 147.34C554.056 151.095 556.244 155.169 558.369 159.571L551.84 147.34ZM562.748 169.355L565.295 128.993L562.748 169.355ZM562.748 169.355C561.328 165.93 559.864 162.669 558.369 159.571L562.748 169.355ZM542.425 133.37H511.346H542.425Z" stroke="white" stroke-width="2"/>
<path opacity="0.2" d="M630.119 201.757C619.409 209.403 606.925 210.04 599.435 202.946C594.806 198.563 592.814 191.955 593.442 184.711C594.07 177.467 597.321 169.654 603.091 163.027C608.946 156.303 617.508 148.389 625.788 143.324C629.933 140.788 633.944 139.007 637.471 138.406C640.983 137.809 643.899 138.398 646.055 140.44C648.255 142.523 649.619 146.068 650.164 150.619C650.705 155.144 650.417 160.516 649.453 166.06C647.565 176.911 643.134 188.181 637.591 194.835L624.206 190.977L621.241 190.122L623.156 192.633L630.119 201.757Z" stroke="white" stroke-width="2"/>
<path opacity="0.2" d="M615.726 294.724C603.995 287.385 608.106 280.047 618.506 281.881M581.213 348.299C581.213 315.275 593.443 289.832 615.726 294.724L581.213 348.299ZM615.726 294.724C633.553 298.637 671.24 311.032 687.854 316.74C698.41 306.955 681.99 291.666 666.744 281.881C644.332 267.499 625.395 268.617 618.506 281.881L615.726 294.724ZM615.726 294.724C615.726 289.652 616.704 285.35 618.506 281.881L615.726 294.724Z" stroke="white" stroke-width="2"/>
<path opacity="0.2" d="M517.91 184.644C535.66 174.86 580.743 186.681 581.213 274.744M517.91 184.644C521.958 181.946 526.009 178.267 532.456 177.306C541.256 175.994 550.72 181.04 544.774 185.012C534.219 192.063 521.195 184.441 517.91 184.644ZM517.91 184.644C506.896 191.987 500.126 196.921 498.448 226.23C496.103 267.204 474.992 232.346 472.646 215.222C470.301 198.098 475.803 182.198 517.91 184.644Z" stroke="white" stroke-width="2"/>
<path opacity="0.2" d="M456.564 1H289.713V245.944H456.564V1Z" stroke="white" stroke-width="2"/>
<path opacity="0.2" d="M449.918 7.93896H296.362V239.005H449.918V7.93896Z" stroke="white" stroke-width="2"/>
<path opacity="0.2" d="M433.963 35.6953H312.316V211.249H433.963V35.6953Z" stroke="white" stroke-width="2"/>
<path opacity="0.2" d="M357.85 36.0396C364.306 53.249 370.802 67.9329 377.131 80.4497M433.633 150.534C433.633 150.534 421.564 145.755 404.41 124.166L433.633 150.534Z" stroke="white" stroke-width="2"/>
<path opacity="0.2" d="M377.154 77.5823C377.593 48.9463 401.486 50.7849 413.377 55.2838C413.926 55.2838 415.353 56.1053 416.671 59.3912C418.317 63.4985 419.415 96.9465 418.866 100.467C418.317 103.988 413.377 111.617 404.596 123.353C395.815 135.088 397.461 148.585 387.582 159.148C377.703 169.71 374.958 163.255 373.312 162.081C371.665 160.908 373.312 152.693 371.665 143.891C370.019 135.088 372.763 125.7 373.312 121.005C373.86 116.311 376.605 113.377 377.154 77.5823Z" stroke="white" stroke-width="2"/>
<path opacity="0.2" d="M342.693 210.904C337.838 209.337 327.453 205.728 324.764 203.846C323.083 202.67 321.402 200.317 320.281 199.14C319.385 198.2 313.931 189.729 311.316 185.611M311.316 162.672L323.083 159.143C326.445 157.966 328.686 157.966 330.927 158.554C333.168 159.143 348.297 161.495 352.219 162.672C356.141 163.847 361.184 166.789 364.545 170.318C367.907 173.847 387.518 195.023 388.639 196.788C389.759 198.553 389.759 199.14 389.759 200.317C389.759 201.493 389.199 207.964 387.518 210.904L311.316 162.672Z" stroke="white" stroke-width="2"/>
<path opacity="0.2" d="M349.645 66.8797C348.581 67.4348 344.77 69.8867 342.997 71.0432C341.667 71.9054 341.667 73.8194 342.332 80.0646C342.997 86.3098 344.326 89.0854 345.656 89.0854C346.986 89.0854 348.315 89.7793 350.309 89.7793C352.304 89.7793 352.968 89.7793 354.298 89.0854C355.628 88.3915 358.287 85.6159 359.616 84.2281C360.68 83.1178 360.946 81.4524 360.946 80.7584V75.2072C360.946 73.8194 360.281 72.4316 358.951 71.0432C357.622 69.6547 353.633 66.8797 352.968 66.8797C352.304 66.8797 350.974 66.1858 349.645 66.8797Z" stroke="white" stroke-width="2"/>
<path opacity="0.2" d="M-8.03859 379.524L-32.2085 477.104C-32.7356 479.463 -31.4714 481.857 -29.2654 482.676C-27.0595 483.496 -24.6089 482.482 -23.5605 480.316L9.91017 391.321" stroke="white" stroke-width="2" stroke-linejoin="round"/>
<path opacity="0.2" d="M9.48762 266.347L-8.73681 156.551C-10.4601 146.169 -19.9256 139.213 -29.8703 141.019C-39.774 142.819 -46.4201 152.634 -44.7404 162.98L-21.3338 303.888" stroke="white" stroke-width="2"/>
<path opacity="0.2" d="M182.75 326.094L154.85 165.965C152.103 150.201 138.897 138.738 123.482 138.738H-21.491C-27.0168 138.738 -33.4039 140.933 -37.2886 144.29" stroke="white" stroke-width="2"/>
<path opacity="0.2" d="M235.933 276.132L260.781 278.978C276.904 280.836 289.114 295.191 289.114 312.287V359.201C289.114 377.707 274.882 392.709 257.326 392.709H234.076" stroke="white" stroke-width="2"/>
<path opacity="0.2" d="M172.115 269.193L239.967 276.538C254.314 278.165 265.183 290.793 265.183 305.837V363.134C265.183 375.028 258.423 385.277 248.69 389.933" stroke="white" stroke-width="2"/>
<path opacity="0.2" d="M166.581 377.443H243.514C247.404 377.443 250.558 380.86 250.558 385.075C250.558 389.291 247.404 392.709 243.514 392.709H98.9902" stroke="white" stroke-width="2"/>
<path opacity="0.2" d="M161.595 326.094H232.591C246.184 326.094 257.204 337.588 257.204 351.768C257.204 365.948 246.184 377.443 232.591 377.443H156.159" stroke="white" stroke-width="2"/>
<path opacity="0.2" d="M-22.0316 302.934C-24.7855 281.876 -7.89329 263.787 12.116 266.309L106.765 278.239C122.232 280.189 133.888 294.011 133.888 310.438V360.625C133.888 378.543 120.099 393.052 103.108 393.052H16.5831C1.21437 393.052 -11.8086 381.106 -13.9082 365.051L-22.0316 302.934Z" stroke="white" stroke-width="2"/>
<path opacity="0.2" d="M62.7284 273.357L133.275 282.11C149.363 284.105 161.478 298.323 161.478 315.207V359.376C161.478 377.785 147.158 392.709 129.494 392.709H49.7969" stroke="white" stroke-width="2"/>
<path opacity="0.2" d="M99 160C99 160 111.901 184.462 107.284 207.614C106.875 209.67 107.284 211.649 107.769 212.506C109.2 215.039 117.765 233.998 114.39 256.213C113.999 258.79 114.449 260.207 114.982 261.106C116.39 263.48 120.121 270.321 122.457 280.475" stroke="white" stroke-width="2" stroke-linecap="round"/>
<path opacity="0.2" d="M45.0791 160.182C45.0791 160.182 57.9801 184.644 53.3633 207.796C52.9533 209.852 53.3633 211.831 53.8478 212.688C55.2788 215.222 63.8441 234.18 60.4689 256.396C60.0775 258.972 60.5281 260.389 61.0611 261.288C62.1006 263.041 64.4068 267.584 66.4826 273.931" stroke="white" stroke-width="2" stroke-linecap="round"/>
<path opacity="0.2" d="M52.1161 215.222C54.0593 215.222 55.6346 213.579 55.6346 211.553C55.6346 209.526 54.0593 207.883 52.1161 207.883C50.1729 207.883 48.5977 209.526 48.5977 211.553C48.5977 213.579 50.1729 215.222 52.1161 215.222Z" fill="white"/>
<path opacity="0.2" d="M106.066 215.222C108.009 215.222 109.584 213.579 109.584 211.553C109.584 209.526 108.009 207.883 106.066 207.883C104.123 207.883 102.548 209.526 102.548 211.553C102.548 213.579 104.123 215.222 106.066 215.222Z" fill="white"/>
<path opacity="0.2" d="M59.1532 264.146C61.0964 264.146 62.6716 262.503 62.6716 260.477C62.6716 258.45 61.0964 256.808 59.1532 256.808C57.21 256.808 55.6348 258.45 55.6348 260.477C55.6348 262.503 57.21 264.146 59.1532 264.146Z" fill="white"/>
<path opacity="0.2" d="M113.103 264.146C115.046 264.146 116.621 262.503 116.621 260.477C116.621 258.45 115.046 256.808 113.103 256.808C111.16 256.808 109.585 258.45 109.585 260.477C109.585 262.503 111.16 264.146 113.103 264.146Z" fill="white"/>
</g>
</svg>
